# Blender v2.83.4 OBJ File: ''
# www.blender.org
mtllib Testing.mtl
v -13.071322 0.000000 13.071322
v 13.071322 0.000000 13.071322
v -13.071322 0.000000 -13.071322
v 13.071322 0.000000 -13.071322
vt 0.000000 0.000000
vt 1.000000 0.000000
vt 1.000000 1.000000
vt 0.000000 1.000000
vn 0.0000 1.0000 0.0000
g Plane_Plane_Checkerboard
usemtl Checkerboard
s off
f 1/1/1 2/2/1 4/3/1 3/4/1
v 0.227284 0.000000 0.459955
v 0.227284 0.600000 0.459955
v 0.453943 0.000000 -0.095586
v 0.453943 0.600000 -0.095586
v 0.782826 0.000000 0.686614
v 0.782826 0.600000 0.686614
v 1.009484 0.000000 0.131072
v 1.009484 0.600000 0.131072
vt 0.375000 0.000000
vt 0.625000 0.000000
vt 0.625000 0.250000
vt 0.375000 0.250000
vt 0.625000 0.500000
vt 0.375000 0.500000
vt 0.625000 0.750000
vt 0.375000 0.750000
vt 0.625000 1.000000
vt 0.375000 1.000000
vt 0.125000 0.500000
vt 0.125000 0.750000
vt 0.875000 0.500000
vt 0.875000 0.750000
vn -0.9259 0.0000 -0.3778
vn 0.3778 0.0000 -0.9259
vn 0.9259 0.0000 0.3778
vn -0.3778 0.0000 0.9259
vn 0.0000 -1.0000 0.0000
vn 0.0000 1.0000 0.0000
g Cube_Red_Cube_Red_Red
usemtl Red
s off
f 5/5/2 6/6/2 8/7/2 7/8/2
f 7/8/3 8/7/3 12/9/3 11/10/3
f 11/10/4 12/9/4 10/11/4 9/12/4
f 9/12/5 10/11/5 6/13/5 5/14/5
f 7/15/6 11/10/6 9/12/6 5/16/6
f 12/9/7 8/17/7 6/18/7 10/11/7
v -0.200000 0.000000 0.200000
v -0.200000 0.400000 0.200000
v -0.200000 0.000000 -0.200000
v -0.200000 0.400000 -0.200000
v 0.200000 0.000000 0.200000
v 0.200000 0.400000 0.200000
v 0.200000 0.000000 -0.200000
v 0.200000 0.400000 -0.200000
vt 0.375000 0.000000
vt 0.625000 0.000000
vt 0.625000 0.250000
vt 0.375000 0.250000
vt 0.625000 0.500000
vt 0.375000 0.500000
vt 0.625000 0.750000
vt 0.375000 0.750000
vt 0.625000 1.000000
vt 0.375000 1.000000
vt 0.125000 0.500000
vt 0.125000 0.750000
vt 0.875000 0.500000
vt 0.875000 0.750000
vn -1.0000 0.0000 0.0000
vn 0.0000 0.0000 -1.0000
vn 1.0000 0.0000 0.0000
vn 0.0000 0.0000 1.0000
vn 0.0000 -1.0000 0.0000
vn 0.0000 1.0000 0.0000
g Cube_Green_Cube_Green_Green
usemtl Green
s off
f 13/19/8 14/20/8 16/21/8 15/22/8
f 15/22/9 16/21/9 20/23/9 19/24/9
f 19/24/10 20/23/10 18/25/10 17/26/10
f 17/26/11 18/25/11 14/27/11 13/28/11
f 15/29/12 19/24/12 17/26/12 13/30/12
f 20/23/13 16/31/13 14/32/13 18/25/13
v -0.200000 0.000000 1.971046
v -0.200000 1.200000 1.971046
v -0.200000 0.000000 0.771046
v -0.200000 1.200000 0.771046
v 1.000000 0.000000 1.971046
v 1.000000 1.200000 1.971046
v 1.000000 0.000000 0.771046
v 1.000000 1.200000 0.771046
vt 0.375000 0.000000
vt 0.625000 0.000000
vt 0.625000 0.250000
vt 0.375000 0.250000
vt 0.625000 0.500000
vt 0.375000 0.500000
vt 0.625000 0.750000
vt 0.375000 0.750000
vt 0.625000 1.000000
vt 0.375000 1.000000
vt 0.125000 0.500000
vt 0.125000 0.750000
vt 0.875000 0.500000
vt 0.875000 0.750000
vn -1.0000 0.0000 0.0000
vn 0.0000 0.0000 -1.0000
vn 1.0000 0.0000 0.0000
vn 0.0000 0.0000 1.0000
vn 0.0000 -1.0000 0.0000
vn 0.0000 1.0000 0.0000
g Cube_Yellow_Cube_Yellow_Yellow
usemtl Yellow
s off
f 21/33/14 22/34/14 24/35/14 23/36/14
f 23/36/15 24/35/15 28/37/15 27/38/15
f 27/38/16 28/37/16 26/39/16 25/40/16
f 25/40/17 26/39/17 22/41/17 21/42/17
f 23/43/18 27/38/18 25/40/18 21/44/18
f 28/37/19 24/45/19 22/46/19 26/39/19
