# Blender v2.83.4 OBJ File: ''
# www.blender.org
mtllib CornellBox-Plane.mtl
v -9.838728 -0.000000 9.862434
v 9.741315 -0.000000 9.862434
v 9.741315 0.000000 -9.912434
v -9.643902 0.000000 -9.912434
v 0.530000 0.600000 0.750000
v 0.700000 0.600000 0.170000
v 0.130000 0.600000 0.000000
v -0.050000 0.600000 0.570000
v -0.050000 -0.000000 0.570000
v -0.050000 0.600000 0.570000
v 0.130000 0.600000 0.000000
v 0.130000 0.000000 0.000000
v 0.530000 -0.000000 0.750000
v 0.530000 0.600000 0.750000
v -0.050000 0.600000 0.570000
v -0.050000 -0.000000 0.570000
v 0.130000 0.000000 0.000000
v 0.130000 0.600000 0.000000
v 0.700000 0.600000 0.170000
v 0.700000 -0.000000 0.170000
v 0.700000 -0.000000 0.170000
v 0.700000 0.600000 0.170000
v 0.530000 0.600000 0.750000
v 0.530000 -0.000000 0.750000
v -0.530000 1.200000 0.090000
v 0.040000 1.200000 -0.090000
v -0.140000 1.200000 -0.670000
v -0.710000 1.200000 -0.490000
v -0.530000 -0.000000 0.090000
v -0.530000 1.200000 0.090000
v -0.710000 1.200000 -0.490000
v -0.710000 0.000000 -0.490000
v -0.710000 0.000000 -0.490000
v -0.710000 1.200000 -0.490000
v -0.140000 1.200000 -0.670000
v -0.140000 0.000000 -0.670000
v -0.140000 0.000000 -0.670000
v -0.140000 1.200000 -0.670000
v 0.040000 1.200000 -0.090000
v 0.040000 0.000000 -0.090000
v 0.040000 0.000000 -0.090000
v 0.040000 1.200000 -0.090000
v -0.530000 1.200000 0.090000
v -0.530000 -0.000000 0.090000
vt 0.675027 0.388355
vt 0.338351 0.388355
vt 0.338351 0.000000
vt 0.671677 0.000000
vt 0.776252 0.346000
vt 0.675027 0.344173
vt 0.676131 0.230388
vt 0.776252 0.229821
vt 0.099631 0.887971
vt 0.099631 0.773186
vt 0.198585 0.773186
vt 0.198585 0.887971
vt 0.433469 0.772177
vt 0.533969 0.772177
vt 0.533970 0.887043
vt 0.433469 0.887043
vt 0.099631 0.773186
vt 0.099631 0.887971
vt 0.000000 0.887971
vt 0.000000 0.773186
vt 0.533970 0.887042
vt 0.533970 0.772259
vt 0.634215 0.772177
vt 0.634215 0.886960
vt 0.333348 0.772177
vt 0.433469 0.772744
vt 0.433469 0.888923
vt 0.333348 0.888356
vt 0.766801 0.229569
vt 0.766801 0.000000
vt 0.858224 0.000000
vt 0.858224 0.229569
vt 0.756551 1.000000
vt 0.756551 0.770431
vt 0.839427 0.770431
vt 0.839427 1.000000
vt 0.766801 0.000254
vt 0.766801 0.229821
vt 0.675027 0.229566
vt 0.675027 0.000000
vt 0.756551 0.770431
vt 0.756551 1.000000
vt 0.666674 1.000000
vt 0.666674 0.770431
vn 0.0000 1.0000 0.0000
vn -0.9536 0.0000 -0.3011
vn -0.2964 -0.0000 0.9551
vn 0.2858 0.0000 -0.9583
vn 0.9596 -0.0000 0.2813
vn -0.9551 0.0000 0.2964
vn -0.3011 0.0000 -0.9536
vn 0.9551 0.0000 -0.2964
vn 0.3011 -0.0000 0.9536
g CornellBox-Original-No-Ceiling_CornellBox-Original-No-Ceiling_floor
usemtl floor
s 1
f 1/1/1 2/2/1 3/3/1 4/4/1
g CornellBox-Original-No-Ceiling_CornellBox-Original-No-Ceiling_rightWall
usemtl rightWall
f 5/5/1 6/6/1 7/7/1 8/8/1
f 9/9/2 10/10/2 11/11/2 12/12/2
f 13/13/3 14/14/3 15/15/3 16/16/3
f 17/17/4 18/18/4 19/19/4 20/20/4
f 21/21/5 22/22/5 23/23/5 24/24/5
g CornellBox-Original-No-Ceiling_CornellBox-Original-No-Ceiling_leftWall
usemtl leftWall
f 25/25/1 26/26/1 27/27/1 28/28/1
f 29/29/6 30/30/6 31/31/6 32/32/6
f 33/33/7 34/34/7 35/35/7 36/36/7
f 37/37/8 38/38/8 39/39/8 40/40/8
f 41/41/9 42/42/9 43/43/9 44/44/9
